# xmcd CD database file
#
# Track frame offsets:
#	150
#	19463
#	38868
#	59138
#	77405
#	103123
#	127699
#	149817
#	169969
#	188047
#	208158
#	228797
#	264272
#	292313
#	305053
#	317177
#	327056
#	341124
#
# Disc length: 4715 seconds
#
# Revision: 0
# Processed by: cddbd v1.5.2PL0 Copyright (c) Steve Scherf et al.
# Submitted via: CDex 1.70beta2
#
DISCID=18126912
DTITLE=Gary Burton - Conception - CD1
DYEAR=2014
DGENRE=Jazz
TTITLE0=Storm
TTITLE1=I've Just Seen Her
TTITLE2=Fly Time Fly
TTITLE3=Conception
TTITLE4=Get Away Blues
TTITLE5=My Funny Valentine
TTITLE6=One Note
TTITLE7=All the Things You Are
TTITLE8=Three-Four, the Blues
TTITLE9=Move
TTITLE10=Always
TTITLE11=Riot-Chous
TTITLE12=Relaxin'
TTITLE13=It's Love, of Course
TTITLE14=Not for me
TTITLE15=Pop Goes the Weasel
TTITLE16=Unless You're in Love
TTITLE17=Rainy Afternoon
EXTD=YEAR: 2014
EXTT0=
EXTT1=
EXTT2=
EXTT3=
EXTT4=
EXTT5=
EXTT6=
EXTT7=
EXTT8=
EXTT9=
EXTT10=
EXTT11=
EXTT12=
EXTT13=
EXTT14=
EXTT15=
EXTT16=
EXTT17=
PLAYORDER=
